<?xml version="1.0" encoding="UTF-8"?>
<svg xmlns="http://www.w3.org/2000/svg" version="1.1" viewBox="0 0 623.88 275.89">
  <defs>
    <style>
      .cls-1 {
        fill: #393d46;
      }

      .cls-2 {
        fill: #00827a;
      }
    </style>
  </defs>
  <!-- Generator: Adobe Illustrator 28.6.0, SVG Export Plug-In . SVG Version: 1.2.0 Build 709)  -->
  <g>
    <g id="Layer_1">
      <g>
        <path class="cls-2" d="M71.17,72.83c0-22.69,18.4-41.1,41.1-41.1s41.09,18.4,41.09,41.1h-82.19M71.17,155.03c0,22.69,18.4,41.09,41.1,41.09s41.09-18.4,41.09-41.09h-82.19ZM108.36,113.74c-20.86-1.96-37.19-19.54-37.19-40.91-22.69,0-41.09,18.4-41.09,41.1s18.4,41.1,41.09,41.1c0-21.38,16.32-38.95,37.19-40.92v-.37ZM116.18,114.11c20.86,1.97,37.18,19.54,37.18,40.92,22.7,0,41.09-18.4,41.09-41.1s-18.4-41.1-41.09-41.1c0,21.38-16.32,38.95-37.18,40.91v.37Z"/>
        <path class="cls-1" d="M231.39,229.65c1.44-6.8,3.24-13.42,5.42-19.87,2.17-6.45,4.92-13.07,8.25-19.87h5.36c3.33,6.98,6.08,13.7,8.25,20.16,2.17,6.47,3.94,13,5.31,19.58h-5.2c-.77-3.71-1.61-7.29-2.52-10.72h-17.3c-.91,3.43-1.77,7.01-2.58,10.72h-5ZM240.17,214.71h14.88c-1.02-3.36-2.14-6.7-3.36-10.02-1.23-3.31-2.59-6.68-4.1-10.12-1.51,3.44-2.87,6.81-4.1,10.12-1.23,3.31-2.33,6.65-3.31,10.02ZM269.76,229.65v-21.19l-.68-5.52,4.21-.68.9,4.15c1.58-3.15,4.52-4.73,8.83-4.73,3.15,0,5.56.92,7.23,2.76,1.66,1.84,2.5,4.51,2.5,8.02v17.19h-4.84v-16.61c0-2.45-.49-4.26-1.47-5.42s-2.52-1.73-4.63-1.73c-2.24,0-4.01.65-5.28,1.95-1.28,1.3-1.92,3.03-1.92,5.2v16.61h-4.84ZM302.57,197.31c-1.96,0-2.94-1.07-2.94-3.21s.98-3.21,2.94-3.21,2.95,1.07,2.95,3.21-.98,3.21-2.95,3.21ZM300.15,229.65v-27.18h4.84v27.18h-4.84ZM312.98,229.65v-21.19l-.68-5.52,4.21-.68.9,4.15c1.54-3.15,4.33-4.73,8.36-4.73,2,0,3.72.45,5.18,1.34,1.45.89,2.52,2.24,3.18,4.02.7-1.72,1.77-3.04,3.21-3.97,1.44-.93,3.22-1.39,5.36-1.39,3.01,0,5.37.9,7.07,2.71,1.7,1.81,2.55,4.46,2.55,7.96v17.3h-4.84v-16.93c0-2.38-.52-4.12-1.55-5.2s-2.46-1.63-4.28-1.63c-2.03,0-3.64.66-4.81,1.97-1.18,1.31-1.76,3.22-1.76,5.7v16.09h-4.84v-16.93c0-2.42-.52-4.16-1.58-5.23s-2.52-1.6-4.42-1.6c-2.14,0-3.74.61-4.81,1.84-1.07,1.23-1.6,2.86-1.6,4.89v17.03h-4.84ZM366.13,230.28c-2.59,0-4.67-.75-6.23-2.26-1.56-1.51-2.34-3.49-2.34-5.94,0-3.36,1.46-5.97,4.37-7.81,2.91-1.84,7.11-2.81,12.62-2.92-.14-1.89-.68-3.31-1.63-4.26-.95-.95-2.49-1.42-4.63-1.42-2.66,0-5.14.74-7.41,2.21l-1.68-3.26c2.66-1.96,5.94-2.94,9.83-2.94,6.87,0,10.3,3.42,10.3,10.25v11.57l.68,5.68-4.15.68-.95-4.31c-.81,1.51-1.97,2.67-3.5,3.5-1.52.82-3.29,1.24-5.28,1.24ZM362.45,221.76c0,1.4.45,2.52,1.34,3.34.89.82,2.13,1.24,3.71,1.24,2.07,0,3.77-.64,5.1-1.92,1.33-1.28,2-2.92,2-4.92v-4.68c-3.96.11-6.98.75-9.04,1.94-2.07,1.19-3.1,2.86-3.1,5ZM386.9,229.65v-39.75h4.84v39.75h-4.84ZM411.98,229.65v-39.75h5.05v17.24h19.14v-17.24h5.05v39.75h-5.05v-18.09h-19.14v18.09h-5.05ZM461.5,230.43c-4.14,0-7.34-1.22-9.6-3.65-2.26-2.44-3.39-6.05-3.39-10.86s1.03-8.07,3.1-10.54c2.07-2.47,5.08-3.71,9.04-3.71,3.61,0,6.37,1.04,8.28,3.13,1.91,2.09,2.87,5.18,2.87,9.28v3.63h-18.4c.21,2.56.96,4.64,2.26,6.26,1.29,1.61,3.45,2.42,6.47,2.42,1.51,0,2.87-.22,4.08-.66,1.21-.44,2.32-1.01,3.34-1.71l1.89,3.31c-2.56,2.07-5.87,3.1-9.94,3.1ZM460.55,205.67c-2.45,0-4.23.79-5.34,2.37-1.1,1.58-1.71,3.54-1.81,5.89h13.62c0-1.54-.2-2.93-.61-4.18-.4-1.24-1.08-2.23-2.02-2.97s-2.23-1.1-3.84-1.1ZM484.06,230.28c-2.59,0-4.67-.75-6.23-2.26-1.56-1.51-2.34-3.49-2.34-5.94,0-3.36,1.46-5.97,4.37-7.81,2.91-1.84,7.11-2.81,12.62-2.92-.14-1.89-.68-3.31-1.63-4.26-.95-.95-2.49-1.42-4.63-1.42-2.66,0-5.14.74-7.41,2.21l-1.68-3.26c2.66-1.96,5.94-2.94,9.83-2.94,6.87,0,10.3,3.42,10.3,10.25v11.57l.68,5.68-4.15.68-.95-4.31c-.81,1.51-1.97,2.67-3.5,3.5-1.52.82-3.29,1.24-5.28,1.24ZM480.38,221.76c0,1.4.45,2.52,1.34,3.34.89.82,2.13,1.24,3.71,1.24,2.07,0,3.77-.64,5.1-1.92,1.33-1.28,2-2.92,2-4.92v-4.68c-3.96.11-6.98.75-9.04,1.94-2.07,1.19-3.1,2.86-3.1,5ZM504.82,229.65v-39.75h4.84v39.75h-4.84ZM527.95,230.12c-5.75,0-8.62-3.31-8.62-9.94v-13.93h-5v-3.21l5-.58v-7.78h4.84v7.78h8.31v3.79h-8.31v13.77c0,4,1.51,5.99,4.52,5.99.77,0,1.58-.11,2.42-.34.84-.23,1.61-.52,2.31-.87l1.42,3.52c-1.89,1.19-4.19,1.79-6.89,1.79ZM539.68,229.65v-39.75h4.78v16.19c1.61-2.94,4.47-4.42,8.57-4.42,3.12,0,5.5.93,7.15,2.79,1.65,1.86,2.47,4.52,2.47,7.99v17.19h-4.84v-16.61c0-.49-.04-1.13-.11-1.92-.07-.79-.29-1.58-.66-2.39-.37-.81-.96-1.48-1.79-2.02-.82-.54-1.99-.82-3.5-.82-2.28,0-4.06.65-5.34,1.95-1.28,1.3-1.92,3.03-1.92,5.2v16.61h-4.84ZM278.06,115.23l-16.96-42.38h-26.43v82.73h17.81v-58.69l25.57,59.57h.02l25.56-59.57v58.69h17.79v-82.73h-26.41l-16.96,42.38ZM328.1,129.64c-.59,20.62,13.42,28.31,29.78,28.68,18.94.43,33.39-7.65,33.39-25.87s-16.4-21.21-29.22-25.37c-4.96-1.61-14.15-3.05-14.15-11.51,0-7.07,6.12-10.47,12.39-10.47,8.03,0,12.2,3.98,12.8,12.24h16.08c0-16.37-12.57-25.89-27.61-25.89s-31.2,8.73-31.2,25.7c0,14.72,16.21,22.3,25.46,24.67,5.06,1.34,17.89,2.78,17.89,11.94s-8.97,11.07-15.67,11.07c-8.64,0-13.71-6.06-12.97-15.19h-16.98ZM469.25,114.25c0-28.66-22.28-41.49-44.25-41.49h-26.42v82.83h26.42c21.96,0,44.25-12.69,44.25-41.34ZM423.83,140.51h-7.33s0,0,0,0v-52.53h7.33c20.12,0,27.39,13.14,27.39,26.27s-7.27,26.27-27.39,26.27Z"/>
      </g>
    </g>
  </g>
</svg>